<svg width="167" height="199" viewBox="0 0 167 199" fill="none" xmlns="http://www.w3.org/2000/svg">
<g opacity="0.5">
<g clip-path="url(#clip0_1_132)">
<path d="M83.3187 0L0 34.8025C0 34.8025 6.01829 99.2277 15.5143 139.876C19.9047 158.671 83.3187 198.998 83.3187 198.998C83.3187 198.998 146.733 158.671 151.123 139.876C160.619 99.2277 166.637 34.8025 166.637 34.8025L83.3187 0Z" fill="#4D4D4D"/>
<path d="M83.3191 182.374C55.9902 164.196 31.5224 143.699 29.0312 136.521C21.8783 105.912 16.6493 66.2012 14.7254 43.7559L83.3191 15.0951L151.913 43.7559C149.964 66.2259 144.76 105.961 137.558 136.719C135.116 143.724 110.648 164.22 83.3191 182.374Z" fill="white"/>
</g>
</g>
<defs>
<clipPath id="clip0_1_132">
<rect width="166.613" height="198.998" fill="white"/>
</clipPath>
</defs>
</svg>
