<svg width="129" height="115" viewBox="0 0 129 115" fill="none" xmlns="http://www.w3.org/2000/svg">
<rect x="7.08377" width="115" height="115" rx="25.5556" fill="url(#paint0_linear_1_98)"/>
<path d="M23.17 63.1025L26.2428 58.2112L21.7277 56.8943L23.2327 52.0657L27.9359 54.3232L27.497 49.1811H33.517L33.0781 54.3232L37.7812 52.0657L39.2863 56.8943L34.7712 58.2112L37.844 63.1025L33.517 65.9244L30.507 60.7196L27.497 65.9244L23.17 63.1025ZM45.6125 63.1025L48.6853 58.2112L44.1702 56.8943L45.6752 52.0657L50.3784 54.3232L49.9395 49.1811H55.9595L55.5206 54.3232L60.2237 52.0657L61.7288 56.8943L57.2137 58.2112L60.2865 63.1025L55.9595 65.9244L52.9495 60.7196L49.9395 65.9244L45.6125 63.1025ZM68.055 63.1025L71.1278 58.2112L66.6127 56.8943L68.1177 52.0657L72.8209 54.3232L72.382 49.1811H78.402L77.9631 54.3232L82.6663 52.0657L84.1713 56.8943L79.6562 58.2112L82.729 63.1025L78.402 65.9244L75.392 60.7196L72.382 65.9244L68.055 63.1025ZM90.4975 63.1025L93.5703 58.2112L89.0552 56.8943L90.5603 52.0657L95.2634 54.3232L94.8245 49.1811H100.845L100.406 54.3232L105.109 52.0657L106.614 56.8943L102.099 58.2112L105.171 63.1025L100.845 65.9244L97.8345 60.7196L94.8245 65.9244L90.4975 63.1025Z" fill="#001C44"/>
<path d="M23.17 63.1025L22.3403 62.5813L21.8279 63.397L22.6348 63.9232L23.17 63.1025ZM26.2428 58.2112L27.0725 58.7324L27.7626 57.6338L26.5171 57.2706L26.2428 58.2112ZM21.7277 56.8943L20.7923 56.6027L20.4953 57.5555L21.4534 57.8349L21.7277 56.8943ZM23.2327 52.0657L23.6567 51.1824L22.6347 50.6918L22.2973 51.7741L23.2327 52.0657ZM27.9359 54.3232L27.5119 55.2066L29.0581 55.9487L28.9122 54.2399L27.9359 54.3232ZM27.497 49.1811V48.2013H26.4299L26.5207 49.2644L27.497 49.1811ZM33.517 49.1811L34.4933 49.2644L34.5841 48.2013H33.517V49.1811ZM33.0781 54.3232L32.1018 54.2399L31.9559 55.9487L33.5021 55.2066L33.0781 54.3232ZM37.7812 52.0657L38.7167 51.7741L38.3793 50.6918L37.3572 51.1824L37.7812 52.0657ZM39.2863 56.8943L39.5606 57.8349L40.5187 57.5555L40.2217 56.6027L39.2863 56.8943ZM34.7712 58.2112L34.4969 57.2706L33.2514 57.6338L33.9415 58.7324L34.7712 58.2112ZM37.844 63.1025L38.3792 63.9232L39.1861 63.397L38.6737 62.5813L37.844 63.1025ZM33.517 65.9244L32.6688 66.4149L33.1864 67.3099L34.0523 66.7451L33.517 65.9244ZM30.507 60.7196L31.3552 60.229L30.507 58.7624L29.6588 60.229L30.507 60.7196ZM27.497 65.9244L26.9617 66.7451L27.8276 67.3099L28.3452 66.4149L27.497 65.9244ZM23.9997 63.6237L27.0725 58.7324L25.4131 57.69L22.3403 62.5813L23.9997 63.6237ZM26.5171 57.2706L22.0021 55.9537L21.4534 57.8349L25.9684 59.1518L26.5171 57.2706ZM22.6632 57.1859L24.1682 52.3573L22.2973 51.7741L20.7923 56.6027L22.6632 57.1859ZM22.8087 52.949L27.5119 55.2066L28.3599 53.4399L23.6567 51.1824L22.8087 52.949ZM28.9122 54.2399L28.4732 49.0977L26.5207 49.2644L26.9596 54.4066L28.9122 54.2399ZM27.497 50.1609H33.517V48.2013H27.497V50.1609ZM32.5407 49.0977L32.1018 54.2399L34.0543 54.4066L34.4933 49.2644L32.5407 49.0977ZM33.5021 55.2066L38.2052 52.949L37.3572 51.1824L32.6541 53.4399L33.5021 55.2066ZM36.8458 52.3573L38.3508 57.1859L40.2217 56.6027L38.7167 51.7741L36.8458 52.3573ZM39.0119 55.9537L34.4969 57.2706L35.0456 59.1518L39.5606 57.8349L39.0119 55.9537ZM33.9415 58.7324L37.0143 63.6237L38.6737 62.5813L35.6009 57.69L33.9415 58.7324ZM37.3087 62.2818L32.9818 65.1037L34.0523 66.7451L38.3792 63.9232L37.3087 62.2818ZM34.3652 65.4339L31.3552 60.229L29.6588 61.2101L32.6688 66.4149L34.3652 65.4339ZM29.6588 60.229L26.6487 65.4339L28.3452 66.4149L31.3552 61.2101L29.6588 60.229ZM28.0322 65.1037L23.7053 62.2818L22.6348 63.9232L26.9617 66.7451L28.0322 65.1037ZM45.6125 63.1025L44.7828 62.5813L44.2704 63.397L45.0773 63.9232L45.6125 63.1025ZM48.6853 58.2112L49.515 58.7324L50.2051 57.6338L48.9596 57.2706L48.6853 58.2112ZM44.1702 56.8943L43.2348 56.6027L42.9378 57.5555L43.8959 57.8349L44.1702 56.8943ZM45.6752 52.0657L46.0992 51.1824L45.0772 50.6918L44.7398 51.7741L45.6752 52.0657ZM50.3784 54.3232L49.9544 55.2066L51.5006 55.9487L51.3547 54.2399L50.3784 54.3232ZM49.9395 49.1811V48.2013H48.8724L48.9632 49.2644L49.9395 49.1811ZM55.9595 49.1811L56.9358 49.2644L57.0266 48.2013H55.9595V49.1811ZM55.5206 54.3232L54.5443 54.2399L54.3984 55.9487L55.9446 55.2066L55.5206 54.3232ZM60.2237 52.0657L61.1592 51.7741L60.8218 50.6918L59.7997 51.1824L60.2237 52.0657ZM61.7288 56.8943L62.0031 57.8349L62.9612 57.5555L62.6642 56.6027L61.7288 56.8943ZM57.2137 58.2112L56.9394 57.2706L55.6939 57.6338L56.384 58.7324L57.2137 58.2112ZM60.2865 63.1025L60.8217 63.9232L61.6286 63.397L61.1162 62.5813L60.2865 63.1025ZM55.9595 65.9244L55.1113 66.4149L55.6289 67.3099L56.4948 66.7451L55.9595 65.9244ZM52.9495 60.7196L53.7977 60.229L52.9495 58.7624L52.1013 60.229L52.9495 60.7196ZM49.9395 65.9244L49.4042 66.7451L50.2701 67.3099L50.7877 66.4149L49.9395 65.9244ZM46.4422 63.6237L49.515 58.7324L47.8556 57.69L44.7828 62.5813L46.4422 63.6237ZM48.9596 57.2706L44.4446 55.9537L43.8959 57.8349L48.4109 59.1518L48.9596 57.2706ZM45.1057 57.1859L46.6107 52.3573L44.7398 51.7741L43.2348 56.6027L45.1057 57.1859ZM45.2512 52.949L49.9544 55.2066L50.8024 53.4399L46.0992 51.1824L45.2512 52.949ZM51.3547 54.2399L50.9157 49.0977L48.9632 49.2644L49.4021 54.4066L51.3547 54.2399ZM49.9395 50.1609H55.9595V48.2013H49.9395V50.1609ZM54.9833 49.0977L54.5443 54.2399L56.4968 54.4066L56.9358 49.2644L54.9833 49.0977ZM55.9446 55.2066L60.6478 52.949L59.7997 51.1824L55.0966 53.4399L55.9446 55.2066ZM59.2883 52.3573L60.7933 57.1859L62.6642 56.6027L61.1592 51.7741L59.2883 52.3573ZM61.4544 55.9537L56.9394 57.2706L57.4881 59.1518L62.0031 57.8349L61.4544 55.9537ZM56.384 58.7324L59.4568 63.6237L61.1162 62.5813L58.0434 57.69L56.384 58.7324ZM59.7512 62.2818L55.4243 65.1037L56.4948 66.7451L60.8217 63.9232L59.7512 62.2818ZM56.8077 65.4339L53.7977 60.229L52.1013 61.2101L55.1113 66.4149L56.8077 65.4339ZM52.1013 60.229L49.0913 65.4339L50.7877 66.4149L53.7977 61.2101L52.1013 60.229ZM50.4747 65.1037L46.1478 62.2818L45.0773 63.9232L49.4042 66.7451L50.4747 65.1037ZM68.055 63.1025L67.2253 62.5813L66.7129 63.397L67.5198 63.9232L68.055 63.1025ZM71.1278 58.2112L71.9575 58.7324L72.6476 57.6338L71.4021 57.2706L71.1278 58.2112ZM66.6127 56.8943L65.6773 56.6027L65.3803 57.5555L66.3384 57.8349L66.6127 56.8943ZM68.1177 52.0657L68.5417 51.1824L67.5197 50.6918L67.1823 51.7741L68.1177 52.0657ZM72.8209 54.3232L72.3969 55.2066L73.9431 55.9487L73.7972 54.2399L72.8209 54.3232ZM72.382 49.1811V48.2013H71.3149L71.4057 49.2644L72.382 49.1811ZM78.402 49.1811L79.3783 49.2644L79.4691 48.2013H78.402V49.1811ZM77.9631 54.3232L76.9868 54.2399L76.8409 55.9487L78.3871 55.2066L77.9631 54.3232ZM82.6663 52.0657L83.6017 51.7741L83.2643 50.6918L82.2423 51.1824L82.6663 52.0657ZM84.1713 56.8943L84.4456 57.8349L85.4037 57.5555L85.1067 56.6027L84.1713 56.8943ZM79.6562 58.2112L79.3819 57.2706L78.1364 57.6338L78.8265 58.7324L79.6562 58.2112ZM82.729 63.1025L83.2642 63.9232L84.0711 63.397L83.5587 62.5813L82.729 63.1025ZM78.402 65.9244L77.5538 66.4149L78.0714 67.3099L78.9373 66.7451L78.402 65.9244ZM75.392 60.7196L76.2402 60.229L75.392 58.7624L74.5438 60.229L75.392 60.7196ZM72.382 65.9244L71.8467 66.7451L72.7126 67.3099L73.2302 66.4149L72.382 65.9244ZM68.8847 63.6237L71.9575 58.7324L70.2981 57.69L67.2253 62.5813L68.8847 63.6237ZM71.4021 57.2706L66.8871 55.9537L66.3384 57.8349L70.8534 59.1518L71.4021 57.2706ZM67.5482 57.1859L69.0532 52.3573L67.1823 51.7741L65.6773 56.6027L67.5482 57.1859ZM67.6937 52.949L72.3969 55.2066L73.2449 53.4399L68.5417 51.1824L67.6937 52.949ZM73.7972 54.2399L73.3582 49.0977L71.4057 49.2644L71.8447 54.4066L73.7972 54.2399ZM72.382 50.1609H78.402V48.2013H72.382V50.1609ZM77.4258 49.0977L76.9868 54.2399L78.9394 54.4066L79.3783 49.2644L77.4258 49.0977ZM78.3871 55.2066L83.0903 52.949L82.2423 51.1824L77.5391 53.4399L78.3871 55.2066ZM81.7308 52.3573L83.2358 57.1859L85.1067 56.6027L83.6017 51.7741L81.7308 52.3573ZM83.8969 55.9537L79.3819 57.2706L79.9306 59.1518L84.4456 57.8349L83.8969 55.9537ZM78.8265 58.7324L81.8993 63.6237L83.5587 62.5813L80.4859 57.69L78.8265 58.7324ZM82.1937 62.2818L77.8668 65.1037L78.9373 66.7451L83.2642 63.9232L82.1937 62.2818ZM79.2502 65.4339L76.2402 60.229L74.5438 61.2101L77.5538 66.4149L79.2502 65.4339ZM74.5438 60.229L71.5338 65.4339L73.2302 66.4149L76.2402 61.2101L74.5438 60.229ZM72.9172 65.1037L68.5903 62.2818L67.5198 63.9232L71.8467 66.7451L72.9172 65.1037ZM90.4975 63.1025L89.6679 62.5813L89.1554 63.397L89.9623 63.9232L90.4975 63.1025ZM93.5703 58.2112L94.4 58.7324L95.0901 57.6338L93.8446 57.2706L93.5703 58.2112ZM89.0552 56.8943L88.1198 56.6027L87.8228 57.5555L88.7809 57.8349L89.0552 56.8943ZM90.5603 52.0657L90.9843 51.1824L89.9622 50.6918L89.6248 51.7741L90.5603 52.0657ZM95.2634 54.3232L94.8394 55.2066L96.3856 55.9487L96.2397 54.2399L95.2634 54.3232ZM94.8245 49.1811V48.2013H93.7574L93.8482 49.2644L94.8245 49.1811ZM100.845 49.1811L101.821 49.2644L101.912 48.2013H100.845V49.1811ZM100.406 54.3232L99.4293 54.2399L99.2834 55.9487L100.83 55.2066L100.406 54.3232ZM105.109 52.0657L106.044 51.7741L105.707 50.6918L104.685 51.1824L105.109 52.0657ZM106.614 56.8943L106.888 57.8349L107.846 57.5555L107.549 56.6027L106.614 56.8943ZM102.099 58.2112L101.824 57.2706L100.579 57.6338L101.269 58.7324L102.099 58.2112ZM105.171 63.1025L105.707 63.9232L106.514 63.397L106.001 62.5813L105.171 63.1025ZM100.845 65.9244L99.9963 66.4149L100.514 67.3099L101.38 66.7451L100.845 65.9244ZM97.8345 60.7196L98.6827 60.229L97.8345 58.7624L96.9863 60.229L97.8345 60.7196ZM94.8245 65.9244L94.2892 66.7451L95.1551 67.3099L95.6727 66.4149L94.8245 65.9244ZM91.3272 63.6237L94.4 58.7324L92.7406 57.69L89.6679 62.5813L91.3272 63.6237ZM93.8446 57.2706L89.3296 55.9537L88.7809 57.8349L93.2959 59.1518L93.8446 57.2706ZM89.9907 57.1859L91.4957 52.3573L89.6248 51.7741L88.1198 56.6027L89.9907 57.1859ZM90.1363 52.949L94.8394 55.2066L95.6874 53.4399L90.9843 51.1824L90.1363 52.949ZM96.2397 54.2399L95.8008 49.0977L93.8482 49.2644L94.2872 54.4066L96.2397 54.2399ZM94.8245 50.1609H100.845V48.2013H94.8245V50.1609ZM99.8683 49.0977L99.4293 54.2399L101.382 54.4066L101.821 49.2644L99.8683 49.0977ZM100.83 55.2066L105.533 52.949L104.685 51.1824L99.9816 53.4399L100.83 55.2066ZM104.173 52.3573L105.678 57.1859L107.549 56.6027L106.044 51.7741L104.173 52.3573ZM106.339 55.9537L101.824 57.2706L102.373 59.1518L106.888 57.8349L106.339 55.9537ZM101.269 58.7324L104.342 63.6237L106.001 62.5813L102.928 57.69L101.269 58.7324ZM104.636 62.2818L100.309 65.1037L101.38 66.7451L105.707 63.9232L104.636 62.2818ZM101.693 65.4339L98.6827 60.229L96.9863 61.2101L99.9963 66.4149L101.693 65.4339ZM96.9863 60.229L93.9763 65.4339L95.6727 66.4149L98.6827 61.2101L96.9863 60.229ZM95.3597 65.1037L91.0328 62.2818L89.9623 63.9232L94.2892 66.7451L95.3597 65.1037Z" fill="white"/>
<defs>
<linearGradient id="paint0_linear_1_98" x1="64.5838" y1="115" x2="64.5838" y2="-1.08766e-06" gradientUnits="userSpaceOnUse">
<stop stop-color="#8DC33E"/>
<stop offset="1" stop-color="#C4DA53"/>
</linearGradient>
</defs>
</svg>
