<svg width="56" height="56" viewBox="0 0 56 56" fill="none" xmlns="http://www.w3.org/2000/svg">
<rect width="56" height="56" rx="12.4444" fill="url(#paint0_linear_1_19)"/>
<path d="M12.6934 31.1823C12.4968 30.7201 12.3875 30.214 12.3875 29.6858C12.3875 29.1576 12.4968 28.6514 12.6934 28.1893C12.8901 27.7271 13.1742 27.287 13.5239 26.9348L22.6587 17.7357C24.1665 16.2172 26.6141 16.2172 28.122 17.7357C29.6299 19.2542 29.6299 21.7191 28.122 23.2376L25.5652 25.8125H39.0925C41.2123 25.8125 42.9606 27.5511 42.9606 29.7078C42.9606 31.8645 41.2341 33.6031 39.0925 33.6031H25.5652L28.122 36.156C29.6299 37.6745 29.6299 40.1394 28.122 41.6579C27.379 42.4062 26.3956 42.8023 25.3903 42.8023C24.3851 42.8023 23.4235 42.4282 22.6587 41.6579L13.5239 32.4587C13.1742 32.1066 12.8901 31.6885 12.6934 31.2043V31.1823Z" fill="white"/>
<defs>
<linearGradient id="paint0_linear_1_19" x1="28" y1="56" x2="28" y2="-5.29644e-07" gradientUnits="userSpaceOnUse">
<stop stop-color="#8DC33E"/>
<stop offset="1" stop-color="#C4DA53"/>
</linearGradient>
</defs>
</svg>
